<mxfile host="app.diagrams.net" agent="Mozilla/5.0 (X11; Linux x86_64) AppleWebKit/537.36 (KHTML, like Gecko) Chrome/130.0.0.0 Safari/537.36" version="24.8.4">
  <diagram name="Page-1" id="uAfEwh5G7NUnD9WMC_jT">
    <mxGraphModel dx="1687" dy="2069" grid="1" gridSize="10" guides="1" tooltips="1" connect="1" arrows="1" fold="1" page="1" pageScale="1" pageWidth="827" pageHeight="1169" math="1" shadow="0">
      <root>
        <mxCell id="0" />
        <mxCell id="1" parent="0" />
        <mxCell id="tFZuy0Ws1lNC_Y-ibc_p-43" value="" style="group" parent="1" vertex="1" connectable="0">
          <mxGeometry x="320" y="50" width="240" height="160" as="geometry" />
        </mxCell>
        <mxCell id="tFZuy0Ws1lNC_Y-ibc_p-1" value="" style="endArrow=none;html=1;rounded=0;movable=0;resizable=0;rotatable=0;deletable=0;editable=0;locked=1;connectable=0;" parent="tFZuy0Ws1lNC_Y-ibc_p-43" edge="1">
          <mxGeometry width="50" height="50" relative="1" as="geometry">
            <mxPoint x="50" y="80" as="sourcePoint" />
            <mxPoint x="90" y="30" as="targetPoint" />
          </mxGeometry>
        </mxCell>
        <mxCell id="tFZuy0Ws1lNC_Y-ibc_p-2" value="" style="endArrow=none;html=1;rounded=0;movable=0;resizable=0;rotatable=0;deletable=0;editable=0;locked=1;connectable=0;" parent="tFZuy0Ws1lNC_Y-ibc_p-43" edge="1">
          <mxGeometry width="50" height="50" relative="1" as="geometry">
            <mxPoint x="90" y="30" as="sourcePoint" />
            <mxPoint x="140" y="80" as="targetPoint" />
          </mxGeometry>
        </mxCell>
        <mxCell id="tFZuy0Ws1lNC_Y-ibc_p-5" value="" style="endArrow=none;html=1;rounded=0;movable=0;resizable=0;rotatable=0;deletable=0;editable=0;locked=1;connectable=0;" parent="tFZuy0Ws1lNC_Y-ibc_p-43" edge="1">
          <mxGeometry width="50" height="50" relative="1" as="geometry">
            <mxPoint x="110" y="130" as="sourcePoint" />
            <mxPoint x="140" y="80" as="targetPoint" />
          </mxGeometry>
        </mxCell>
        <mxCell id="tFZuy0Ws1lNC_Y-ibc_p-6" value="" style="endArrow=none;html=1;rounded=0;movable=0;resizable=0;rotatable=0;deletable=0;editable=0;locked=1;connectable=0;" parent="tFZuy0Ws1lNC_Y-ibc_p-43" edge="1">
          <mxGeometry width="50" height="50" relative="1" as="geometry">
            <mxPoint x="140" y="80" as="sourcePoint" />
            <mxPoint x="170" y="130" as="targetPoint" />
          </mxGeometry>
        </mxCell>
        <mxCell id="tFZuy0Ws1lNC_Y-ibc_p-7" value="" style="endArrow=none;html=1;rounded=0;movable=0;resizable=0;rotatable=0;deletable=0;editable=0;locked=1;connectable=0;" parent="tFZuy0Ws1lNC_Y-ibc_p-43" edge="1">
          <mxGeometry width="50" height="50" relative="1" as="geometry">
            <mxPoint x="40" y="130" as="sourcePoint" />
            <mxPoint x="50" y="80" as="targetPoint" />
          </mxGeometry>
        </mxCell>
        <mxCell id="tFZuy0Ws1lNC_Y-ibc_p-8" value="&lt;font style=&quot;font-size: 7px;&quot;&gt;Dir_1&lt;/font&gt;" style="text;html=1;align=center;verticalAlign=middle;whiteSpace=wrap;rounded=0;fontColor=#FF66FF;" parent="tFZuy0Ws1lNC_Y-ibc_p-43" vertex="1">
          <mxGeometry x="50" width="80" height="40" as="geometry" />
        </mxCell>
        <mxCell id="tFZuy0Ws1lNC_Y-ibc_p-9" value="&lt;font style=&quot;font-size: 7px;&quot;&gt;Subdir_2&lt;/font&gt;" style="text;html=1;align=center;verticalAlign=middle;whiteSpace=wrap;rounded=0;fontColor=#FF33FF;" parent="tFZuy0Ws1lNC_Y-ibc_p-43" vertex="1">
          <mxGeometry x="110" y="50" width="80" height="40" as="geometry" />
        </mxCell>
        <mxCell id="tFZuy0Ws1lNC_Y-ibc_p-10" value="&lt;span style=&quot;font-size: 7px;&quot;&gt;Subdir_1&lt;/span&gt;" style="text;html=1;align=center;verticalAlign=middle;whiteSpace=wrap;rounded=0;fontColor=#FF66FF;" parent="tFZuy0Ws1lNC_Y-ibc_p-43" vertex="1">
          <mxGeometry y="50" width="80" height="40" as="geometry" />
        </mxCell>
        <mxCell id="tFZuy0Ws1lNC_Y-ibc_p-11" value="" style="endArrow=none;html=1;rounded=0;" parent="tFZuy0Ws1lNC_Y-ibc_p-43" edge="1">
          <mxGeometry width="50" height="50" relative="1" as="geometry">
            <mxPoint x="90" y="30" as="sourcePoint" />
            <mxPoint x="200" y="50" as="targetPoint" />
          </mxGeometry>
        </mxCell>
        <mxCell id="tFZuy0Ws1lNC_Y-ibc_p-12" value="&lt;font color=&quot;#66b2ff&quot; style=&quot;font-size: 7px;&quot;&gt;File_1&lt;/font&gt;" style="text;html=1;align=center;verticalAlign=middle;whiteSpace=wrap;rounded=0;" parent="tFZuy0Ws1lNC_Y-ibc_p-43" vertex="1">
          <mxGeometry x="160" y="40" width="80" height="40" as="geometry" />
        </mxCell>
        <mxCell id="tFZuy0Ws1lNC_Y-ibc_p-13" value="&lt;font color=&quot;#66b2ff&quot; style=&quot;font-size: 7px;&quot;&gt;File_2&lt;/font&gt;" style="text;html=1;align=center;verticalAlign=middle;whiteSpace=wrap;rounded=0;" parent="tFZuy0Ws1lNC_Y-ibc_p-43" vertex="1">
          <mxGeometry y="115" width="80" height="40" as="geometry" />
        </mxCell>
        <mxCell id="tFZuy0Ws1lNC_Y-ibc_p-14" value="&lt;font color=&quot;#66b2ff&quot; style=&quot;font-size: 7px;&quot;&gt;File_3&lt;/font&gt;" style="text;html=1;align=center;verticalAlign=middle;whiteSpace=wrap;rounded=0;" parent="tFZuy0Ws1lNC_Y-ibc_p-43" vertex="1">
          <mxGeometry x="70" y="110" width="90" height="50" as="geometry" />
        </mxCell>
        <mxCell id="tFZuy0Ws1lNC_Y-ibc_p-15" value="&lt;font color=&quot;#66b2ff&quot; style=&quot;font-size: 7px;&quot;&gt;File_4&lt;/font&gt;&lt;div&gt;&lt;font style=&quot;font-size: 7px;&quot;&gt;&lt;br&gt;&lt;/font&gt;&lt;/div&gt;" style="text;html=1;align=center;verticalAlign=middle;whiteSpace=wrap;rounded=0;" parent="tFZuy0Ws1lNC_Y-ibc_p-43" vertex="1">
          <mxGeometry x="140" y="125" width="60" height="30" as="geometry" />
        </mxCell>
        <mxCell id="tFZuy0Ws1lNC_Y-ibc_p-16" value="" style="shape=cylinder3;whiteSpace=wrap;html=1;boundedLbl=1;backgroundOutline=1;size=15;fillColor=#d5e8d4;strokeColor=#82b366;movable=1;resizable=1;rotatable=1;deletable=1;editable=1;locked=0;connectable=1;" parent="1" vertex="1">
          <mxGeometry x="760" y="-160" width="170" height="160" as="geometry" />
        </mxCell>
        <mxCell id="tFZuy0Ws1lNC_Y-ibc_p-18" value="&lt;span style=&quot;font-size: 16px;&quot;&gt;&amp;lt;id(Dir_1),Subdir_1&amp;gt;&lt;/span&gt;&lt;div&gt;&lt;span style=&quot;font-size: 16px;&quot;&gt;&amp;lt;id(Dir_1),Subdir_2&amp;gt;&lt;/span&gt;&lt;/div&gt;&lt;div&gt;&lt;span style=&quot;font-size: 16px;&quot;&gt;&amp;lt;id(Dir_1),File_1&amp;gt;&lt;/span&gt;&lt;/div&gt;" style="text;html=1;align=center;verticalAlign=middle;whiteSpace=wrap;rounded=0;movable=1;resizable=1;rotatable=1;deletable=1;editable=1;locked=0;connectable=1;" parent="1" vertex="1">
          <mxGeometry x="760" y="-120" width="170" height="100" as="geometry" />
        </mxCell>
        <mxCell id="tFZuy0Ws1lNC_Y-ibc_p-19" value="" style="shape=cylinder3;whiteSpace=wrap;html=1;boundedLbl=1;backgroundOutline=1;size=15;fillColor=#d5e8d4;strokeColor=#82b366;movable=1;resizable=1;rotatable=1;deletable=1;editable=1;locked=0;connectable=1;" parent="1" vertex="1">
          <mxGeometry x="1010" y="-160" width="170" height="160" as="geometry" />
        </mxCell>
        <mxCell id="tFZuy0Ws1lNC_Y-ibc_p-20" value="&lt;span style=&quot;font-size: 16px;&quot;&gt;&amp;lt;id(Subdir_1),File_2&amp;gt;&lt;/span&gt;&lt;div&gt;&lt;br&gt;&lt;/div&gt;" style="text;html=1;align=center;verticalAlign=middle;whiteSpace=wrap;rounded=0;movable=1;resizable=1;rotatable=1;deletable=1;editable=1;locked=0;connectable=1;" parent="1" vertex="1">
          <mxGeometry x="1010" y="-120" width="170" height="100" as="geometry" />
        </mxCell>
        <mxCell id="tFZuy0Ws1lNC_Y-ibc_p-21" value="" style="shape=cylinder3;whiteSpace=wrap;html=1;boundedLbl=1;backgroundOutline=1;size=15;fillColor=#d5e8d4;strokeColor=#82b366;movable=1;resizable=1;rotatable=1;deletable=1;editable=1;locked=0;connectable=1;" parent="1" vertex="1">
          <mxGeometry x="1260" y="-160" width="170" height="160" as="geometry" />
        </mxCell>
        <mxCell id="tFZuy0Ws1lNC_Y-ibc_p-22" value="&lt;span style=&quot;font-size: 16px;&quot;&gt;&amp;lt;id(Subdir_2),File_3&amp;gt;&lt;/span&gt;&lt;div&gt;&lt;span style=&quot;font-size: 16px;&quot;&gt;&amp;lt;id(Subdir_2),File_4&amp;gt;&lt;/span&gt;&lt;/div&gt;&lt;div&gt;&lt;br&gt;&lt;/div&gt;" style="text;html=1;align=center;verticalAlign=middle;whiteSpace=wrap;rounded=0;movable=1;resizable=1;rotatable=1;deletable=1;editable=1;locked=0;connectable=1;" parent="1" vertex="1">
          <mxGeometry x="1260" y="-120" width="170" height="100" as="geometry" />
        </mxCell>
        <mxCell id="tFZuy0Ws1lNC_Y-ibc_p-25" value="" style="shape=cylinder3;whiteSpace=wrap;html=1;boundedLbl=1;backgroundOutline=1;size=15;fillColor=#f8cecc;strokeColor=#b85450;movable=1;resizable=1;rotatable=1;deletable=1;editable=1;locked=0;connectable=1;" parent="1" vertex="1">
          <mxGeometry x="1040" y="65" width="170" height="160" as="geometry" />
        </mxCell>
        <mxCell id="tFZuy0Ws1lNC_Y-ibc_p-26" value="&lt;span style=&quot;font-size: 16px;&quot;&gt;&amp;lt;id(File_2),Block_3&amp;gt;&lt;/span&gt;" style="text;html=1;align=center;verticalAlign=middle;whiteSpace=wrap;rounded=0;movable=1;resizable=1;rotatable=1;deletable=1;editable=1;locked=0;connectable=1;" parent="1" vertex="1">
          <mxGeometry x="1040" y="105" width="170" height="100" as="geometry" />
        </mxCell>
        <mxCell id="tFZuy0Ws1lNC_Y-ibc_p-27" value="" style="shape=cylinder3;whiteSpace=wrap;html=1;boundedLbl=1;backgroundOutline=1;size=15;fillColor=#dae8fc;strokeColor=#6c8ebf;gradientColor=#7ea6e0;movable=1;resizable=1;rotatable=1;deletable=1;editable=1;locked=0;connectable=1;" parent="1" vertex="1">
          <mxGeometry x="670" y="280" width="170" height="160" as="geometry" />
        </mxCell>
        <mxCell id="tFZuy0Ws1lNC_Y-ibc_p-29" value="" style="shape=cylinder3;whiteSpace=wrap;html=1;boundedLbl=1;backgroundOutline=1;size=15;fillColor=#dae8fc;strokeColor=#6c8ebf;gradientColor=#7ea6e0;movable=1;resizable=1;rotatable=1;deletable=1;editable=1;locked=0;connectable=1;" parent="1" vertex="1">
          <mxGeometry x="920" y="280" width="170" height="160" as="geometry" />
        </mxCell>
        <mxCell id="tFZuy0Ws1lNC_Y-ibc_p-31" value="" style="shape=cylinder3;whiteSpace=wrap;html=1;boundedLbl=1;backgroundOutline=1;size=15;fillColor=#dae8fc;strokeColor=#6c8ebf;gradientColor=#7ea6e0;movable=1;resizable=1;rotatable=1;deletable=1;editable=1;locked=0;connectable=1;" parent="1" vertex="1">
          <mxGeometry x="1180" y="280" width="170" height="160" as="geometry" />
        </mxCell>
        <mxCell id="tFZuy0Ws1lNC_Y-ibc_p-33" value="" style="shape=cylinder3;whiteSpace=wrap;html=1;boundedLbl=1;backgroundOutline=1;size=15;fillColor=#dae8fc;strokeColor=#6c8ebf;gradientColor=#7ea6e0;movable=1;resizable=1;rotatable=1;deletable=1;editable=1;locked=0;connectable=1;" parent="1" vertex="1">
          <mxGeometry x="1430" y="280" width="170" height="160" as="geometry" />
        </mxCell>
        <mxCell id="tFZuy0Ws1lNC_Y-ibc_p-35" value="&lt;span style=&quot;font-size: 15px;&quot;&gt;Block_1 &lt;svg style=&quot;vertical-align: -0.025ex;&quot; xmlns:xlink=&quot;http://www.w3.org/1999/xlink&quot; viewBox=&quot;0 -511 1000 522&quot; role=&quot;img&quot; height=&quot;1.181ex&quot; width=&quot;2.262ex&quot; xmlns=&quot;http://www.w3.org/2000/svg&quot;&gt;&lt;defs&gt;&lt;path d=&quot;M56 237T56 250T70 270H835Q719 357 692 493Q692 494 692 496T691 499Q691 511 708 511H711Q720 511 723 510T729 506T732 497T735 481T743 456Q765 389 816 336T935 261Q944 258 944 250Q944 244 939 241T915 231T877 212Q836 186 806 152T761 85T740 35T732 4Q730 -6 727 -8T711 -11Q691 -11 691 0Q691 7 696 25Q728 151 835 230H70Q56 237 56 250Z&quot; id=&quot;MJX-5-TEX-N-2192&quot;&gt;&lt;/path&gt;&lt;/defs&gt;&lt;g transform=&quot;scale(1,-1)&quot; stroke-width=&quot;0&quot; fill=&quot;currentColor&quot; stroke=&quot;currentColor&quot;&gt;&lt;g data-mml-node=&quot;math&quot;&gt;&lt;g data-mml-node=&quot;mo&quot;&gt;&lt;use xlink:href=&quot;#MJX-5-TEX-N-2192&quot; data-c=&quot;2192&quot;&gt;&lt;/use&gt;&lt;/g&gt;&lt;/g&gt;&lt;/g&gt;&lt;/svg&gt; List of disk id&lt;/span&gt;" style="text;html=1;align=center;verticalAlign=middle;whiteSpace=wrap;rounded=0;movable=1;resizable=1;rotatable=1;deletable=1;editable=1;locked=0;connectable=1;" parent="1" vertex="1">
          <mxGeometry x="670" y="320" width="170" height="100" as="geometry" />
        </mxCell>
        <mxCell id="tFZuy0Ws1lNC_Y-ibc_p-36" value="&lt;span style=&quot;font-size: 15px;&quot;&gt;Block_2&amp;nbsp;&lt;svg style=&quot;vertical-align: -0.025ex;&quot; xmlns:xlink=&quot;http://www.w3.org/1999/xlink&quot; viewBox=&quot;0 -511 1000 522&quot; role=&quot;img&quot; height=&quot;1.181ex&quot; width=&quot;2.262ex&quot; xmlns=&quot;http://www.w3.org/2000/svg&quot;&gt;&lt;defs&gt;&lt;path d=&quot;M56 237T56 250T70 270H835Q719 357 692 493Q692 494 692 496T691 499Q691 511 708 511H711Q720 511 723 510T729 506T732 497T735 481T743 456Q765 389 816 336T935 261Q944 258 944 250Q944 244 939 241T915 231T877 212Q836 186 806 152T761 85T740 35T732 4Q730 -6 727 -8T711 -11Q691 -11 691 0Q691 7 696 25Q728 151 835 230H70Q56 237 56 250Z&quot; id=&quot;MJX-5-TEX-N-2192&quot;&gt;&lt;/path&gt;&lt;/defs&gt;&lt;g transform=&quot;scale(1,-1)&quot; stroke-width=&quot;0&quot; fill=&quot;currentColor&quot; stroke=&quot;currentColor&quot;&gt;&lt;g data-mml-node=&quot;math&quot;&gt;&lt;g data-mml-node=&quot;mo&quot;&gt;&lt;use xlink:href=&quot;#MJX-5-TEX-N-2192&quot; data-c=&quot;2192&quot;&gt;&lt;/use&gt;&lt;/g&gt;&lt;/g&gt;&lt;/g&gt;&lt;/svg&gt; List of disk id&lt;/span&gt;" style="text;html=1;align=center;verticalAlign=middle;whiteSpace=wrap;rounded=0;movable=1;resizable=1;rotatable=1;deletable=1;editable=1;locked=0;connectable=1;" parent="1" vertex="1">
          <mxGeometry x="920" y="320" width="170" height="100" as="geometry" />
        </mxCell>
        <mxCell id="tFZuy0Ws1lNC_Y-ibc_p-37" value="&lt;span style=&quot;font-size: 15px;&quot;&gt;Block_3&amp;nbsp;&lt;svg style=&quot;vertical-align: -0.025ex;&quot; xmlns:xlink=&quot;http://www.w3.org/1999/xlink&quot; viewBox=&quot;0 -511 1000 522&quot; role=&quot;img&quot; height=&quot;1.181ex&quot; width=&quot;2.262ex&quot; xmlns=&quot;http://www.w3.org/2000/svg&quot;&gt;&lt;defs&gt;&lt;path d=&quot;M56 237T56 250T70 270H835Q719 357 692 493Q692 494 692 496T691 499Q691 511 708 511H711Q720 511 723 510T729 506T732 497T735 481T743 456Q765 389 816 336T935 261Q944 258 944 250Q944 244 939 241T915 231T877 212Q836 186 806 152T761 85T740 35T732 4Q730 -6 727 -8T711 -11Q691 -11 691 0Q691 7 696 25Q728 151 835 230H70Q56 237 56 250Z&quot; id=&quot;MJX-5-TEX-N-2192&quot;&gt;&lt;/path&gt;&lt;/defs&gt;&lt;g transform=&quot;scale(1,-1)&quot; stroke-width=&quot;0&quot; fill=&quot;currentColor&quot; stroke=&quot;currentColor&quot;&gt;&lt;g data-mml-node=&quot;math&quot;&gt;&lt;g data-mml-node=&quot;mo&quot;&gt;&lt;use xlink:href=&quot;#MJX-5-TEX-N-2192&quot; data-c=&quot;2192&quot;&gt;&lt;/use&gt;&lt;/g&gt;&lt;/g&gt;&lt;/g&gt;&lt;/svg&gt; List of disk id&lt;/span&gt;" style="text;html=1;align=center;verticalAlign=middle;whiteSpace=wrap;rounded=0;movable=1;resizable=1;rotatable=1;deletable=1;editable=1;locked=0;connectable=1;" parent="1" vertex="1">
          <mxGeometry x="1180" y="320" width="170" height="100" as="geometry" />
        </mxCell>
        <mxCell id="tFZuy0Ws1lNC_Y-ibc_p-38" value="&lt;span style=&quot;font-size: 15px;&quot;&gt;Block_4&amp;nbsp;&lt;svg style=&quot;vertical-align: -0.025ex;&quot; xmlns:xlink=&quot;http://www.w3.org/1999/xlink&quot; viewBox=&quot;0 -511 1000 522&quot; role=&quot;img&quot; height=&quot;1.181ex&quot; width=&quot;2.262ex&quot; xmlns=&quot;http://www.w3.org/2000/svg&quot;&gt;&lt;defs&gt;&lt;path d=&quot;M56 237T56 250T70 270H835Q719 357 692 493Q692 494 692 496T691 499Q691 511 708 511H711Q720 511 723 510T729 506T732 497T735 481T743 456Q765 389 816 336T935 261Q944 258 944 250Q944 244 939 241T915 231T877 212Q836 186 806 152T761 85T740 35T732 4Q730 -6 727 -8T711 -11Q691 -11 691 0Q691 7 696 25Q728 151 835 230H70Q56 237 56 250Z&quot; id=&quot;MJX-5-TEX-N-2192&quot;&gt;&lt;/path&gt;&lt;/defs&gt;&lt;g transform=&quot;scale(1,-1)&quot; stroke-width=&quot;0&quot; fill=&quot;currentColor&quot; stroke=&quot;currentColor&quot;&gt;&lt;g data-mml-node=&quot;math&quot;&gt;&lt;g data-mml-node=&quot;mo&quot;&gt;&lt;use xlink:href=&quot;#MJX-5-TEX-N-2192&quot; data-c=&quot;2192&quot;&gt;&lt;/use&gt;&lt;/g&gt;&lt;/g&gt;&lt;/g&gt;&lt;/svg&gt; List of disk id&lt;/span&gt;" style="text;html=1;align=center;verticalAlign=middle;whiteSpace=wrap;rounded=0;movable=1;resizable=1;rotatable=1;deletable=1;editable=1;locked=0;connectable=1;" parent="1" vertex="1">
          <mxGeometry x="1430" y="320" width="170" height="100" as="geometry" />
        </mxCell>
        <mxCell id="tFZuy0Ws1lNC_Y-ibc_p-39" value="&lt;font style=&quot;font-size: 23px;&quot;&gt;Name Layer&lt;/font&gt;" style="text;html=1;align=center;verticalAlign=middle;whiteSpace=wrap;rounded=0;movable=1;resizable=1;rotatable=1;deletable=1;editable=1;locked=0;connectable=1;" parent="1" vertex="1">
          <mxGeometry x="1510" y="-95" width="230" height="30" as="geometry" />
        </mxCell>
        <mxCell id="tFZuy0Ws1lNC_Y-ibc_p-40" value="&lt;font style=&quot;font-size: 23px;&quot;&gt;File Layer&lt;/font&gt;" style="text;html=1;align=center;verticalAlign=middle;whiteSpace=wrap;rounded=0;movable=1;resizable=1;rotatable=1;deletable=1;editable=1;locked=0;connectable=1;" parent="1" vertex="1">
          <mxGeometry x="1470" y="130" width="230" height="30" as="geometry" />
        </mxCell>
        <mxCell id="tFZuy0Ws1lNC_Y-ibc_p-41" value="&lt;font style=&quot;font-size: 23px;&quot;&gt;Block Layer&lt;/font&gt;" style="text;html=1;align=center;verticalAlign=middle;whiteSpace=wrap;rounded=0;movable=1;resizable=1;rotatable=1;deletable=1;editable=1;locked=0;connectable=1;" parent="1" vertex="1">
          <mxGeometry x="1610" y="330" width="230" height="30" as="geometry" />
        </mxCell>
        <mxCell id="0W-ZRbFu1LTmzPLwNnfo-2" value="" style="group" vertex="1" connectable="0" parent="1">
          <mxGeometry x="770" y="65" width="170" height="160" as="geometry" />
        </mxCell>
        <mxCell id="tFZuy0Ws1lNC_Y-ibc_p-23" value="" style="shape=cylinder3;whiteSpace=wrap;html=1;boundedLbl=1;backgroundOutline=1;size=15;fillColor=#f8cecc;strokeColor=#b85450;movable=1;resizable=1;rotatable=1;deletable=1;editable=1;locked=0;connectable=1;" parent="0W-ZRbFu1LTmzPLwNnfo-2" vertex="1">
          <mxGeometry width="170" height="160" as="geometry" />
        </mxCell>
        <mxCell id="tFZuy0Ws1lNC_Y-ibc_p-24" value="&lt;span style=&quot;font-size: 16px;&quot;&gt;&amp;lt;id(File_1),Block_1&amp;gt;&lt;/span&gt;&lt;div&gt;&lt;span style=&quot;font-size: 16px;&quot;&gt;&amp;lt;id(File_4),Block_4&amp;gt;&lt;/span&gt;&lt;/div&gt;" style="text;html=1;align=center;verticalAlign=middle;whiteSpace=wrap;rounded=0;movable=1;resizable=1;rotatable=1;deletable=1;editable=1;locked=0;connectable=1;" parent="0W-ZRbFu1LTmzPLwNnfo-2" vertex="1">
          <mxGeometry y="40" width="170" height="100" as="geometry" />
        </mxCell>
        <mxCell id="0W-ZRbFu1LTmzPLwNnfo-3" value="" style="shape=cylinder3;whiteSpace=wrap;html=1;boundedLbl=1;backgroundOutline=1;size=15;fillColor=#f8cecc;strokeColor=#b85450;movable=1;resizable=1;rotatable=1;deletable=1;editable=1;locked=0;connectable=1;" vertex="1" parent="1">
          <mxGeometry x="1260" y="65" width="170" height="160" as="geometry" />
        </mxCell>
        <mxCell id="0W-ZRbFu1LTmzPLwNnfo-4" value="" style="text;whiteSpace=wrap;html=1;" vertex="1" parent="1">
          <mxGeometry x="1300" y="160" width="60" height="50" as="geometry" />
        </mxCell>
        <mxCell id="0W-ZRbFu1LTmzPLwNnfo-5" value="&lt;span style=&quot;font-size: 16px;&quot;&gt;&amp;lt;id(File_3),Block_3&amp;gt;&lt;/span&gt;" style="text;html=1;align=center;verticalAlign=middle;whiteSpace=wrap;rounded=0;movable=1;resizable=1;rotatable=1;deletable=1;editable=1;locked=0;connectable=1;" vertex="1" parent="1">
          <mxGeometry x="1260" y="105" width="170" height="100" as="geometry" />
        </mxCell>
      </root>
    </mxGraphModel>
  </diagram>
</mxfile>
